<svg version="1.0" xmlns="http://www.w3.org/2000/svg" width="32px" height="32px" viewBox="0 0 512.000000 512.000000" preserveAspectRatio="xMidYMid meet" transform="rotate(0) scale(1, 1)">

<g transform="translate(0.000000,512.000000) scale(0.100000,-0.100000)" fill="#c60000" stroke="none">
<path d="M1110 5113 c-287 -30 -529 -140 -733 -332 -175 -166 -291 -374 -350&#10;-626 -21 -89 -21 -108 -25 -1520 -2 -968 0 -1464 7 -1535 56 -543 435 -960&#10;981 -1077 80 -17 171 -18 1560 -18 1124 0 1492 3 1546 12 435 76 783 358 939&#10;760 18 49 44 134 56 189 l23 99 4 1425 c2 964 0 1459 -7 1530 -55 534 -422&#10;947 -956 1073 -89 21 -98 21 -1550 23 -803 0 -1476 -1 -1495 -3z m1865 -1322&#10;c376 -84 521 -281 541 -736 11 -232 -25 -452 -94 -579 -57 -105 -171 -189&#10;-312 -229 -143 -41 -219 -49 -567 -54 l-343 -5 0 -432 c0 -254 -4 -437 -10&#10;-446 -8 -13 -51 -15 -290 -15 -239 0 -282 2 -290 15 -6 9 -10 483 -10 1232 l0&#10;1218 23 14 c15 10 84 18 232 26 116 6 224 13 240 14 17 2 199 3 405 1 346 -2&#10;383 -4 475 -24z"/>
<path d="M2200 2970 l0 -340 158 0 c364 1 469 28 522 135 20 41 25 67 28 165&#10;7 200 -27 288 -133 336 -64 30 -201 44 -427 44 l-148 0 0 -340z"/>
</g>
</svg>